<?xml version="1.0" encoding="utf-8"?>
<!-- Generator: Adobe Illustrator 27.5.0, SVG Export Plug-In . SVG Version: 6.00 Build 0)  -->
<svg version="1.1" id="Layer_1" xmlns="http://www.w3.org/2000/svg" xmlns:xlink="http://www.w3.org/1999/xlink" x="0px" y="0px"
	 viewBox="0 0 1800 1800" style="enable-background:new 0 0 1800 1800;" xml:space="preserve">
<style type="text/css">
	.st0{fill:#FFFFFF;}
</style>
<g>
	<path class="st0" d="M1484.2,418.8H315.8C252,418.8,200,470.3,200,533.7v732.7c0,63.4,52,114.9,115.8,114.9h1168.4
		c63.9,0,115.8-51.6,115.8-114.9V533.7C1600,470.3,1548,418.8,1484.2,418.8z M287.5,559.1L649,870.4l-361.5,361.5V559.1z
		 M911.4,980.9L360.3,506.2h1081.2L911.4,980.9z M715.5,927.6l168,144.7c8.2,7.1,18.4,10.6,28.6,10.6c10.4,0,20.9-3.7,29.2-11.2
		L1094,934.9l358.9,358.9H349.4L715.5,927.6z M1159.3,876.4l353.2-316.3v669.5L1159.3,876.4z"/>
</g>
</svg>
