<?xml version="1.0" encoding="utf-8"?>
<!-- Generator: Adobe Illustrator 27.5.0, SVG Export Plug-In . SVG Version: 6.00 Build 0)  -->
<svg version="1.1" id="Layer_1" xmlns="http://www.w3.org/2000/svg" xmlns:xlink="http://www.w3.org/1999/xlink" x="0px" y="0px"
	 viewBox="0 0 1000 1000" style="enable-background:new 0 0 1000 1000;" xml:space="preserve">
<style type="text/css">
	.st0{fill:#191717;}
</style>
<g>
	<path class="st0" d="M802.1,333.4c-31.2-53.4-73.5-95.8-127-127c-53.5-31.2-111.8-46.8-175.1-46.8c-63.3,0-121.7,15.6-175.1,46.8
		c-53.4,31.2-95.8,73.5-127,127c-31.2,53.5-46.8,111.8-46.8,175.1c0,76,22.2,144.4,66.5,205.1c44.4,60.7,101.7,102.7,172,126.1
		c8.2,1.5,14.2,0.5,18.2-3.2c4-3.6,5.9-8.2,5.9-13.6c0-0.9-0.1-9.1-0.2-24.5c-0.2-15.4-0.3-28.9-0.3-40.4l-10.4,1.8
		c-6.7,1.2-15.1,1.7-25.2,1.6c-10.2-0.1-20.7-1.2-31.6-3.2c-10.9-2-21-6.5-30.4-13.6c-9.4-7.1-16-16.4-20-27.9l-4.6-10.5
		c-3-7-7.8-14.7-14.3-23.2c-5.9-7.6-11.8-13-17.7-16.3c-1.6-0.9-3.2-1.8-4.6-2.9l-0.6-0.4c-2.1-1.5-4.1-3.3-5.9-5.5
		c-1.8-2.1-3.2-4.2-4.1-6.3c-0.9-2.1-0.2-3.9,2.3-5.2c1.4-0.8,3.4-1.3,6.1-1.7c3.7-0.4,7.4-0.3,11,0.2l5.2,0.8
		c6,1.2,13.6,4.8,22.5,10.9c8.9,6.1,16.3,13.9,22,23.6c7,12.4,15.4,21.9,25.2,28.4c9.9,6.5,19.8,9.8,29.8,9.8
		c10,0,18.6-0.8,25.9-2.3c7.3-1.5,14.1-3.8,20.4-6.8c2.7-20.3,10.2-35.9,22.2-46.8c-17.3-1.8-32.8-4.5-46.6-8.2
		c-13.8-3.6-28-9.5-42.7-17.7c-14.7-8.2-26.9-18.3-36.6-30.4c-9.7-12.1-17.6-28-23.8-47.7c-6.2-19.7-9.3-42.4-9.3-68.1
		c0-36.6,12-67.8,35.9-93.6c-11.2-27.6-10.2-58.4,3.2-92.6c8.8-2.7,21.8-0.7,39.1,6.1c17.3,6.8,29.9,12.7,37.9,17.5
		c8,4.8,14.5,9,19.3,12.3c28.2-7.9,57.3-11.8,87.2-11.8c30,0,59,3.9,87.2,11.8l17.3-10.9c11.8-7.3,25.7-13.9,41.8-20
		c16-6,28.3-7.7,36.8-5c13.6,34.2,14.8,65.1,3.6,92.7c23.9,25.7,35.9,56.9,35.9,93.6c0,25.7-3.1,48.5-9.3,68.4
		c-6.2,19.8-14.2,35.7-24.1,47.7c-9.9,12-22.1,22-36.8,30.2c-14.7,8.2-28.9,14.1-42.7,17.7c-13.8,3.7-29.3,6.4-46.6,8.2
		c15.7,13.6,23.6,35.1,23.6,64.5v95.9c0,5.4,1.9,10,5.7,13.6c3.8,3.6,9.8,4.7,17.9,3.2c70.3-23.3,127.6-65.3,171.9-126.1
		c44.4-60.7,66.6-129.1,66.6-205.1C848.9,445.2,833.3,386.9,802.1,333.4z"/>
	<path class="st0" d="M396.3,841.8c-2.1,0-4.5-0.2-6.9-0.7l-0.2-0.1c-70.2-23.3-128.3-65.9-172.7-126.6
		c-44.3-60.7-66.8-130-66.8-206c0-63.3,15.8-122.4,47-175.9c31.2-53.4,74.1-96.3,127.5-127.5c53.5-31.2,112.6-47,175.9-47
		c63.2,0,122.4,15.8,175.9,47c53.4,31.2,96.3,74.1,127.5,127.5l0,0c31.2,53.4,47,112.6,47,175.9c0,76-22.5,145.3-66.9,206
		c-44.3,60.7-102.4,103.3-172.7,126.6l-0.2,0.1c-8.6,1.6-15.1,0.4-19.3-3.6c-4.1-3.9-6.2-8.8-6.2-14.7V727
		c0-28.8-7.8-50.1-23.1-63.4l-2.6-2.3l3.4-0.4c17.2-1.8,32.8-4.6,46.3-8.2c13.6-3.6,27.8-9.5,42.3-17.6
		c14.5-8.1,26.7-18.1,36.4-29.9c9.7-11.7,17.7-27.6,23.8-47.2c6.1-19.6,9.2-42.5,9.2-67.9c0-36.1-11.9-67.2-35.5-92.6l-0.7-0.7
		l0.4-0.9c10.9-26.9,9.8-57.4-3.4-90.9c-8.1-2.3-19.9-0.6-35.1,5.2c-16,6-30,12.7-41.5,19.9l-17.8,11.3l-0.6-0.2
		c-27.9-7.8-57.2-11.8-86.8-11.8c-29.7,0-58.9,4-86.8,11.8l-0.7,0.2l-0.6-0.4c-5.1-3.5-11.6-7.6-19.2-12.2
		c-8.1-4.8-20.8-10.7-37.7-17.4c-16.4-6.5-29-8.6-37.4-6.3c-12.9,33.4-13.9,64-2.9,90.9l0.4,0.9l-0.7,0.7
		c-23.5,25.3-35.5,56.5-35.5,92.6c0,25.5,3.1,48.2,9.2,67.7c6.1,19.4,14,35.3,23.6,47.2c9.6,11.9,21.7,22,36.1,30
		c14.5,8.1,28.7,14,42.3,17.6c13.6,3.6,29.1,6.3,46.3,8.2l3.3,0.4l-2.5,2.3c-11.8,10.6-19.1,26-21.8,45.9l-0.1,0.8l-0.7,0.3
		c-6.4,3-13.4,5.4-20.8,6.9c-7.4,1.5-16.2,2.3-26.2,2.3c-10.3,0-20.5-3.4-30.6-10c-10-6.6-18.6-16.4-25.7-28.9
		c-5.6-9.4-12.8-17.2-21.6-23.1c-8.7-5.9-16.1-9.5-21.9-10.7l-5.1-0.8c-3.7-0.6-7.3-0.6-10.6-0.2c-2.5,0.3-4.3,0.8-5.5,1.5
		c-2.3,1.3-2,2.4-1.6,3.3c0.8,2,2.1,4,3.8,5.9c1.8,2.1,3.6,3.8,5.6,5.2l0.6,0.4c1.4,1,2.8,1.9,4.5,2.8c6.1,3.3,12.2,8.9,18.2,16.7
		c6.7,8.7,11.4,16.4,14.5,23.5l4.6,10.6c3.8,11.2,10.4,20.4,19.5,27.2c9.1,6.9,19.2,11.4,29.8,13.3c10.7,2,21.3,3,31.3,3.2
		c10,0.2,18.4-0.4,24.9-1.6l12.2-2.1v1.8c0,11.4,0.1,25,0.3,40.4c0.1,8.1,0.1,14.2,0.2,18.3c0,3.7,0.1,5.8,0.1,6.2
		c0,5.9-2.2,10.8-6.4,14.7C405.7,840.4,401.5,841.8,396.3,841.8z M390,838.2c7.6,1.4,13.2,0.5,16.8-2.8c3.7-3.4,5.4-7.5,5.4-12.5
		c0-0.4,0-2.5-0.1-6.2c0-4.1-0.1-10.2-0.2-18.3c-0.2-14.6-0.2-27.6-0.2-38.7l-8.7,1.5c-6.7,1.2-15.3,1.8-25.5,1.6
		c-10.2-0.1-20.9-1.2-31.8-3.2c-11.1-2-21.6-6.7-31.1-13.9c-9.6-7.2-16.4-16.8-20.5-28.6l-4.5-10.4c-2.9-6.8-7.7-14.5-14.1-22.9
		c-5.7-7.4-11.5-12.7-17.2-15.8c-1.8-1-3.3-1.9-4.8-2.9l-0.6-0.4c-2.2-1.6-4.3-3.5-6.2-5.7c-1.9-2.2-3.4-4.5-4.3-6.7
		c-0.7-1.7-1.3-4.8,2.9-7.1c1.5-0.9,3.7-1.5,6.6-1.9c3.6-0.4,7.4-0.4,11.4,0.2l5.2,0.8c6.3,1.2,14,5,23.1,11.1
		c9.1,6.2,16.7,14.3,22.5,24.1c6.8,12.2,15.2,21.6,24.7,27.9c9.5,6.3,19.3,9.5,28.9,9.5c9.8,0,18.4-0.7,25.6-2.2
		c6.9-1.4,13.4-3.6,19.4-6.4c2.7-18.8,9.5-33.8,20.2-44.7c-16.1-1.8-30.7-4.5-43.6-7.9c-13.8-3.6-28.3-9.6-43-17.9
		c-14.8-8.2-27.2-18.6-37-30.8c-9.8-12.3-17.9-28.5-24.1-48.2c-6.2-19.8-9.4-42.8-9.4-68.6c0-36.5,12-68.1,35.6-93.9
		c-10.9-27.6-9.8-58.8,3.5-92.9l0.3-0.7l0.7-0.2c9.2-2.9,22.3-0.9,40.1,6.2c17.1,6.7,29.9,12.7,38.1,17.6
		c7.4,4.5,13.8,8.5,18.8,11.9c28-7.8,57.3-11.7,87-11.7c29.7,0,59,3.9,87,11.7l16.7-10.6c11.7-7.2,25.9-14,42.1-20.1
		c16.3-6.1,29-7.8,37.8-5l0.7,0.2l0.3,0.7c13.6,34.1,14.9,65.3,4,92.9c23.6,25.8,35.6,57.3,35.6,93.9c0,25.8-3.2,48.9-9.4,68.8
		c-6.2,20-14.4,36.2-24.3,48.2c-9.9,12-22.4,22.3-37.2,30.6c-14.8,8.2-29.2,14.2-43,17.8c-12.8,3.4-27.4,6-43.5,7.9
		c14.4,14,21.7,35.3,21.7,63.4v95.9c0,5,1.8,9.2,5.2,12.5c3.4,3.3,9,4.2,16.5,2.8c69.6-23.1,127.2-65.4,171.1-125.5
		c44-60.2,66.3-128.9,66.3-204.2c0-62.7-15.7-121.4-46.6-174.4l0,0c-30.9-53-73.4-95.5-126.4-126.4c-53-30.9-111.6-46.6-174.4-46.6
		c-62.7,0-121.4,15.7-174.4,46.6c-53,30.9-95.5,73.4-126.4,126.4c-30.9,53-46.6,111.6-46.6,174.4c0,75.3,22.3,144,66.2,204.2
		C262.8,772.9,320.4,815.1,390,838.2z"/>
</g>
</svg>
