<?xml version="1.0" encoding="utf-8"?>
<!-- Generator: Adobe Illustrator 27.5.0, SVG Export Plug-In . SVG Version: 6.00 Build 0)  -->
<svg version="1.1" id="Layer_1" xmlns="http://www.w3.org/2000/svg" xmlns:xlink="http://www.w3.org/1999/xlink" x="0px" y="0px"
	 viewBox="0 0 2400 2400" style="enable-background:new 0 0 2400 2400;" xml:space="preserve">
<style type="text/css">
	.st0{display:none;fill:#E2E2E2;}
	.st1{fill:#FFFFFF;}
</style>
<g>
	<path class="st0" d="M211.2,654.3c-4.2-91.7-19.4-141.5-32.2-174.7c-17-43.9-37.3-75.3-70.1-108.2c-32.8-32.9-64-53.3-107.7-70.4
		c-33-12.9-82.6-28.2-173.9-32.4c-98.8-4.5-128.4-5.5-378.4-5.5c-250.1,0-279.7,1-378.4,5.5c-91.3,4.2-140.9,19.5-173.9,32.4
		c-43.7,17.1-74.9,37.5-107.7,70.4c-32.8,32.9-53.1,64.3-70.1,108.2c-12.8,33.2-28.1,83-32.2,174.7c-4.5,99.2-5.5,129-5.5,380.2
		c0,251.2,1,281,5.5,380.2c4.2,91.7,19.4,141.5,32.2,174.7c17,43.9,37.3,75.3,70.1,108.2c32.8,32.9,64,53.3,107.7,70.4
		c33,12.9,82.6,28.2,173.9,32.4c98.7,4.5,128.4,5.5,378.4,5.5c250.1,0,279.7-1,378.4-5.5c91.3-4.2,140.9-19.5,173.9-32.4
		c43.7-17.1,74.9-37.5,107.7-70.4c32.8-32.9,53.1-64.3,70.1-108.2c12.8-33.1,28.1-83,32.2-174.7c4.5-99.2,5.5-129,5.5-380.2
		C216.6,783.2,215.7,753.5,211.2,654.3z M-551.2,1517.6c-265.6,0-480.9-216.3-480.9-483.1c0-266.8,215.3-483.2,480.9-483.2
		c265.6,0,480.9,216.3,480.9,483.2C-70.2,1301.3-285.6,1517.6-551.2,1517.6z M-51.2,645.1c-62.1,0-112.4-50.5-112.4-112.9
		c0-62.4,50.3-112.9,112.4-112.9c62.1,0,112.4,50.6,112.4,112.9C61.1,594.6,10.8,645.1-51.2,645.1z"/>
	<path class="st1" d="M2140.4,818.1c-4.5-100.2-20.4-168.5-43.5-228.4c-23.9-61.9-55.9-114.3-108-166.6
		c-52.1-52.3-104.3-84.5-165.9-108.5c-59.6-23.3-127.6-39.2-227.3-43.7c-99.9-4.6-131.8-5.7-386.1-5.7c-254.4,0-286.2,1.1-386.1,5.7
		c-99.7,4.6-167.8,20.5-227.3,43.7c-61.6,24-113.8,56.2-165.9,108.5c-52.1,52.3-84.1,104.8-108,166.6
		c-23.1,59.9-39,128.2-43.5,228.4c-4.6,100.3-5.6,132.4-5.6,387.9c0,255.5,1.1,287.6,5.6,387.9c4.5,100.2,20.4,168.5,43.5,228.4
		c23.9,61.9,56,114.3,108,166.7c52.1,52.3,104.3,84.5,165.9,108.5c59.6,23.3,127.6,39.2,227.3,43.7c99.9,4.6,131.8,5.7,386.1,5.7
		c254.3,0,286.2-1.1,386.1-5.7c99.7-4.6,167.8-20.5,227.3-43.7c61.6-24,113.8-56.2,165.9-108.5c52.1-52.3,84.1-104.8,108-166.7
		c23.2-59.8,39-128.2,43.5-228.4c4.6-100.3,5.6-132.4,5.6-387.9C2146.1,950.5,2145,918.5,2140.4,818.1z M1971.9,1586.2
		c-4.2,91.7-19.4,141.5-32.2,174.7c-17,43.9-37.3,75.3-70.1,108.2c-32.8,32.9-64,53.3-107.7,70.4c-33,12.9-82.6,28.2-173.9,32.4
		c-98.7,4.5-128.4,5.5-378.4,5.5c-250.1,0-279.7-1-378.4-5.5c-91.3-4.2-140.9-19.5-173.9-32.4c-43.7-17.1-74.9-37.5-107.7-70.4
		c-32.8-32.9-53.1-64.3-70.1-108.2c-12.8-33.1-28.1-83-32.2-174.7c-4.5-99.2-5.5-129-5.5-380.2c0-251.2,1-281,5.5-380.2
		c4.2-91.7,19.4-141.5,32.2-174.7c17-43.9,37.3-75.3,70.1-108.2c32.8-32.9,64-53.3,107.7-70.4c33-12.9,82.6-28.2,173.9-32.4
		c98.8-4.5,128.4-5.5,378.4-5.5c250.1,0,279.7,1,378.4,5.5c91.3,4.2,140.9,19.5,173.9,32.4c43.7,17.1,74.9,37.5,107.7,70.4
		c32.8,32.9,53.1,64.3,70.1,108.2c12.8,33.2,28.1,83,32.2,174.7c4.5,99.2,5.5,129,5.5,380.2
		C1977.3,1457.2,1976.4,1487,1971.9,1586.2z"/>
	<path class="st1" d="M1821.8,703.8c0,62.4-50.3,112.9-112.4,112.9c-62.1,0-112.4-50.5-112.4-112.9c0-62.4,50.3-112.9,112.4-112.9
		C1771.5,590.9,1821.8,641.4,1821.8,703.8z"/>
	<path class="st1" d="M1209.5,722.9c-265.6,0-480.9,216.3-480.9,483.2c0,266.8,215.3,483.1,480.9,483.1
		c265.6,0,480.9-216.3,480.9-483.1C1690.4,939.2,1475.1,722.9,1209.5,722.9z M1209.5,1519.7c-172.4,0-312.2-140.4-312.2-313.6
		c0-173.2,139.8-313.6,312.2-313.6c172.4,0,312.2,140.4,312.2,313.6C1521.7,1379.2,1381.9,1519.7,1209.5,1519.7z"/>
</g>
</svg>
