<?xml version="1.0" encoding="utf-8"?>
<!-- Generator: Adobe Illustrator 27.5.0, SVG Export Plug-In . SVG Version: 6.00 Build 0)  -->
<svg version="1.1" id="Layer_1" xmlns="http://www.w3.org/2000/svg" xmlns:xlink="http://www.w3.org/1999/xlink" x="0px" y="0px"
	 viewBox="0 0 2400 2400" style="enable-background:new 0 0 2400 2400;" xml:space="preserve">
<style type="text/css">
	.st0{fill:#FFFFFF;}
</style>
<g>
	
		<ellipse transform="matrix(0.7071 -0.7071 0.7071 0.7071 -224.8669 537.7432)" class="st0" cx="536.7" cy="540.3" rx="203.6" ry="203.6"/>
	<rect x="360.3" y="902.3" class="st0" width="352.8" height="1138.8"/>
	<path class="st0" d="M2039.6,1375.7v665.5h-352.8v-665.5c-0.4-23.2-3.9-58.9-20.9-98.2c-4.9-11.4-9.4-21.7-17.9-33.2
		c-32.1-43.8-84.1-55.1-103.9-59.3c-60.9-13.2-109.4,5.2-124.8,11.2c-15.7,6.2-42.2,16.9-67,42.5c-26.9,27.7-37.2,57.7-41.9,72.1
		c-18.7,56.8-20.8,108-21,123.3v607.2H936.7V902.3h352.8v144.4c18.5-25.1,36.3-45,36.3-45c4.5-5,14.4-16,26.1-27.1
		c12.7-12.1,47.3-44.5,100.8-68.6c44.3-19.9,81.5-25.1,108.4-28.6c51.6-6.8,91.8-2.8,125.8,0.5c26.5,2.6,50.4,4.9,81.3,13.3
		c21.4,5.8,60.3,16.6,101.8,43.5c70.7,45.8,103.3,108.6,115.6,133c19.5,38.6,28.3,73.6,32.7,97.2
		C2024.7,1197.5,2039.6,1272,2039.6,1375.7z"/>
</g>
</svg>
